<svg width="53" height="53" viewBox="0 0 53 53" fill="none" xmlns="http://www.w3.org/2000/svg">
<path d="M21.6274 6.89821C24.5604 4.76724 28.5321 4.76725 31.4651 6.89821L45.0397 16.7607C47.9727 18.8917 49.2 22.6689 48.0797 26.1169L42.8946 42.0748C41.7743 45.5228 38.5612 47.8572 34.9358 47.8572H18.1567C14.5313 47.8572 11.3182 45.5228 10.1978 42.0748L5.01281 26.1169C3.8925 22.6689 5.11979 18.8917 8.05282 16.7607L21.6274 6.89821Z" fill="#6750A4"/>
<path d="M24.2419 15.9047C25.9021 14.6984 28.1502 14.6984 29.8104 15.9047L37.4941 21.4872C39.1543 22.6934 39.849 24.8315 39.2149 26.7832L36.2799 35.8159C35.6458 37.7676 33.827 39.089 31.7749 39.089H22.2773C20.2252 39.089 18.4065 37.7676 17.7723 35.8159L14.8374 26.7832C14.2032 24.8315 14.8979 22.6934 16.5581 21.4872L24.2419 15.9047Z" fill="#C988D3"/>
</svg>
