<svg xmlns="http://www.w3.org/2000/svg" viewBox="0 0 128 128">
    <defs>
        <style>
            .cls-1{fill:#1a1a1a}
        </style>
    </defs>
    <g id="Layer_2" data-name="Layer 2">
        <g id="Shield">
            <path class="cls-1" d="M63.89 93.37a4.87 4.87 0 0 1-1.52-.23c-5.34-1.67-22.75-9.08-22.75-34v-15a5 5 0 0 1 3.87-4.87L61.73 35a10 10 0 0 1 4.54 0l18.24 4.26a5 5 0 0 1 3.87 4.87v15c0 25-17.6 32.37-23 34.05a5.14 5.14 0 0 1-1.49.19Z"/>
            <path class="cls-1" d="M64 36.72a8.6 8.6 0 0 1 1.82.2l18.24 4.26a3 3 0 0 1 2.32 2.93v15c0 23.41-16 30.41-21.59 32.14a3.06 3.06 0 0 1-.9.13 2.89 2.89 0 0 1-.92-.14c-5.5-1.72-21.35-8.73-21.35-32.13v-15a3 3 0 0 1 2.32-2.93l18.24-4.26a8.6 8.6 0 0 1 1.82-.2m0-4a11.91 11.91 0 0 0-2.73.31L43 37.29a7 7 0 0 0-5.41 6.82v15c0 26.32 18.49 34.17 24.15 35.95a6.94 6.94 0 0 0 2.12.32 7.05 7.05 0 0 0 2.14-.32c5.72-1.78 24.4-9.62 24.4-36v-15a7 7 0 0 0-5.4-6.77L66.73 33a11.91 11.91 0 0 0-2.73-.28Z"/>
            <path d="m62.18 36.92-18.24 4.26a3 3 0 0 0-2.32 2.93v15c0 23.4 15.85 30.41 21.35 32.13a3.05 3.05 0 0 0 1.82 0c5.56-1.73 21.59-8.73 21.59-32.14v-15a3 3 0 0 0-2.32-2.93l-18.24-4.25a8.28 8.28 0 0 0-3.64 0Z" style="fill:#420ca3"/>
            <path d="m62.18 36.92-18.24 4.26a3 3 0 0 0-2.32 2.93v10.27c0 24.87 17.91 31.22 22.26 32.39 4.4-1.17 22.5-7.52 22.5-32.39V44.11a3 3 0 0 0-2.32-2.93l-18.24-4.26a8.28 8.28 0 0 0-3.64 0Z" style="fill:#9652e3"/>
            <path d="M63.89 79.43c-5.16-1.93-15.27-7.9-15.27-25.05v-7.1L64 43.69l15.38 3.59v7.1c0 17.15-10.26 23.13-15.49 25.05Z" style="fill:#5f29c2"/>
        </g>
    </g>
</svg>
